M48
;DRILL file {KiCad 4.0.0-2.201512062335+6193~38~ubuntu15.10.1-stable} date ti 19. tammikuuta 2016 16.11.57
;FORMAT={-:-/ absolute / inch / decimal}
FMAT,2
INCH,TZ
T1C0.039
T2C0.040
T3C0.122
%
G90
G05
M72
T1
X4.16Y-1.98
X4.16Y-2.08
X4.16Y-2.18
X4.16Y-2.28
X4.16Y-2.38
X4.16Y-2.48
X4.16Y-2.58
X4.16Y-2.68
X4.16Y-2.78
X4.16Y-2.88
X4.16Y-2.98
X4.16Y-3.08
X4.16Y-3.18
X4.16Y-3.28
X4.16Y-3.38
X4.16Y-3.48
X4.16Y-3.58
X4.16Y-3.68
X4.16Y-3.78
X4.16Y-3.88
X4.16Y-3.98
X4.16Y-4.08
X4.16Y-4.18
X4.16Y-4.28
X4.16Y-4.38
X4.16Y-4.48
X4.16Y-4.58
X4.16Y-4.68
X4.16Y-4.78
X4.16Y-4.88
X4.16Y-4.98
X4.16Y-5.08
X4.16Y-5.18
X4.16Y-5.28
X4.16Y-5.38
X4.16Y-5.48
X4.26Y-1.98
X4.26Y-2.08
X4.26Y-2.18
X4.26Y-2.28
X4.26Y-2.38
X4.26Y-2.48
X4.26Y-2.58
X4.26Y-2.68
X4.26Y-2.78
X4.26Y-2.88
X4.26Y-2.98
X4.26Y-3.08
X4.26Y-3.18
X4.26Y-3.28
X4.26Y-3.38
X4.26Y-3.48
X4.26Y-3.58
X4.26Y-3.68
X4.26Y-3.78
X4.26Y-3.88
X4.26Y-3.98
X4.26Y-4.08
X4.26Y-4.18
X4.26Y-4.28
X4.26Y-4.38
X4.26Y-4.48
X4.26Y-4.58
X4.26Y-4.68
X4.26Y-4.78
X4.26Y-4.88
X4.26Y-4.98
X4.26Y-5.08
X4.26Y-5.18
X4.26Y-5.28
X4.26Y-5.38
X4.26Y-5.48
X4.96Y-1.98
X4.96Y-2.08
X4.96Y-2.18
X4.96Y-2.28
X4.96Y-2.38
X4.96Y-2.48
X4.96Y-2.58
X4.96Y-2.68
X4.96Y-2.78
X4.96Y-2.88
X4.96Y-2.98
X4.96Y-3.08
X4.96Y-3.18
X4.96Y-3.28
X4.96Y-3.38
X4.96Y-3.48
X4.96Y-3.58
X4.96Y-3.68
X4.96Y-3.78
X4.96Y-3.88
X4.96Y-3.98
X4.96Y-4.08
X4.96Y-4.18
X4.96Y-4.28
X4.96Y-4.38
X4.96Y-4.48
X4.96Y-4.58
X4.96Y-4.68
X4.96Y-4.78
X4.96Y-4.88
X4.96Y-4.98
X4.96Y-5.08
X4.96Y-5.18
X4.96Y-5.28
X4.96Y-5.38
X4.96Y-5.48
X5.06Y-1.98
X5.06Y-2.08
X5.06Y-2.18
X5.06Y-2.28
X5.06Y-2.38
X5.06Y-2.48
X5.06Y-2.58
X5.06Y-2.68
X5.06Y-2.78
X5.06Y-2.88
X5.06Y-2.98
X5.06Y-3.08
X5.06Y-3.18
X5.06Y-3.28
X5.06Y-3.38
X5.06Y-3.48
X5.06Y-3.58
X5.06Y-3.68
X5.06Y-3.78
X5.06Y-3.88
X5.06Y-3.98
X5.06Y-4.08
X5.06Y-4.18
X5.06Y-4.28
X5.06Y-4.38
X5.06Y-4.48
X5.06Y-4.58
X5.06Y-4.68
X5.06Y-4.78
X5.06Y-4.88
X5.06Y-4.98
X5.06Y-5.08
X5.06Y-5.18
X5.06Y-5.28
X5.06Y-5.38
X5.06Y-5.48
X5.21Y-1.93
X5.21Y-2.03
X5.21Y-2.13
X5.21Y-2.23
X5.21Y-2.33
X5.21Y-2.43
X5.21Y-2.53
X5.21Y-2.63
X5.21Y-2.73
X5.21Y-2.83
X5.21Y-2.93
X5.21Y-3.03
X5.21Y-3.13
X5.21Y-3.23
X5.21Y-3.33
X5.21Y-3.43
X5.21Y-3.53
X5.21Y-3.63
X5.21Y-3.73
X5.21Y-3.83
X5.21Y-3.93
X5.21Y-4.03
X5.21Y-4.13
X5.21Y-4.23
X5.21Y-4.33
X5.21Y-4.43
X5.21Y-4.53
X5.21Y-4.63
X5.21Y-4.73
X5.21Y-4.83
X5.21Y-4.93
X5.21Y-5.03
X5.21Y-5.13
X5.21Y-5.23
X5.21Y-5.33
X5.21Y-5.43
X5.21Y-5.53
X5.31Y-1.93
X5.31Y-2.03
X5.31Y-2.13
X5.31Y-2.23
X5.31Y-2.33
X5.31Y-2.43
X5.31Y-2.53
X5.31Y-2.63
X5.31Y-2.73
X5.31Y-2.83
X5.31Y-2.93
X5.31Y-3.03
X5.31Y-3.13
X5.31Y-3.23
X5.31Y-3.33
X5.31Y-3.43
X5.31Y-3.53
X5.31Y-3.63
X5.31Y-3.73
X5.31Y-3.83
X5.31Y-3.93
X5.31Y-4.03
X5.31Y-4.13
X5.31Y-4.23
X5.31Y-4.33
X5.31Y-4.43
X5.31Y-4.53
X5.31Y-4.63
X5.31Y-4.73
X5.31Y-4.83
X5.31Y-4.93
X5.31Y-5.03
X5.31Y-5.13
X5.31Y-5.23
X5.31Y-5.33
X5.31Y-5.43
X5.31Y-5.53
X5.38Y-1.88
X5.38Y-1.98
X5.38Y-2.08
X5.38Y-2.18
X5.38Y-2.28
X5.38Y-2.38
X5.38Y-2.48
X5.38Y-2.58
X5.38Y-2.68
X5.38Y-2.78
X5.38Y-2.88
X5.38Y-2.98
X5.38Y-3.08
X5.38Y-3.18
X5.38Y-3.28
X5.38Y-3.38
X5.38Y-3.48
X5.38Y-3.58
X5.38Y-3.68
X5.41Y-3.83
X5.41Y-3.93
X5.41Y-4.03
X5.41Y-4.13
X5.41Y-4.23
X5.41Y-4.33
X5.41Y-4.43
X5.41Y-4.53
X5.41Y-4.63
X5.41Y-4.73
X5.41Y-4.83
X5.41Y-4.93
X5.41Y-5.03
X5.41Y-5.13
X5.41Y-5.23
X5.41Y-5.33
X5.41Y-5.43
X5.41Y-5.53
X5.45Y-1.93
X5.45Y-2.03
X5.45Y-2.13
X5.45Y-2.23
X5.45Y-2.33
X5.45Y-2.43
X5.45Y-2.53
X5.45Y-2.63
X5.45Y-2.73
X5.45Y-2.83
X5.45Y-2.93
X5.45Y-3.03
X5.45Y-3.13
X5.45Y-3.23
X5.45Y-3.33
X5.45Y-3.43
X5.45Y-3.53
X5.45Y-3.63
X5.45Y-3.73
X5.51Y-3.83
X5.51Y-3.93
X5.51Y-4.03
X5.51Y-4.13
X5.51Y-4.23
X5.51Y-4.33
X5.51Y-4.43
X5.51Y-4.53
X5.51Y-4.63
X5.51Y-4.73
X5.51Y-4.83
X5.51Y-4.93
X5.51Y-5.03
X5.51Y-5.13
X5.51Y-5.23
X5.51Y-5.33
X5.51Y-5.43
X5.51Y-5.53
X5.52Y-1.88
X5.52Y-1.98
X5.52Y-2.08
X5.52Y-2.18
X5.52Y-2.28
X5.52Y-2.38
X5.52Y-2.48
X5.52Y-2.58
X5.52Y-2.68
X5.52Y-2.78
X5.52Y-2.88
X5.52Y-2.98
X5.52Y-3.08
X5.52Y-3.18
X5.52Y-3.28
X5.52Y-3.38
X5.52Y-3.48
X5.52Y-3.58
X5.52Y-3.68
X5.61Y-3.83
X5.61Y-3.93
X5.61Y-4.03
X5.61Y-4.13
X5.61Y-4.23
X5.61Y-4.33
X5.61Y-4.43
X5.61Y-4.53
X5.61Y-4.63
X5.61Y-4.73
X5.61Y-4.83
X5.61Y-4.93
X5.61Y-5.03
X5.61Y-5.13
X5.61Y-5.23
X5.61Y-5.33
X5.61Y-5.43
X5.61Y-5.53
X5.71Y-3.83
X5.71Y-3.93
X5.71Y-4.03
X5.71Y-4.13
X5.71Y-4.23
X5.71Y-4.33
X5.71Y-4.43
X5.71Y-4.53
X5.71Y-4.63
X5.71Y-4.73
X5.71Y-4.83
X5.71Y-4.93
X5.71Y-5.03
X5.71Y-5.13
X5.71Y-5.23
X5.71Y-5.33
X5.71Y-5.43
X5.71Y-5.53
X5.81Y-3.83
X5.81Y-3.93
X5.81Y-4.03
X5.81Y-4.13
X5.81Y-4.23
X5.81Y-4.33
X5.81Y-4.43
X5.81Y-4.53
X5.81Y-4.63
X5.81Y-4.73
X5.81Y-4.83
X5.81Y-4.93
X5.81Y-5.03
X5.81Y-5.13
X5.81Y-5.23
X5.81Y-5.33
X5.81Y-5.43
X5.81Y-5.53
X5.91Y-3.83
X5.91Y-3.93
X5.91Y-4.03
X5.91Y-4.13
X5.91Y-4.23
X5.91Y-4.33
X5.91Y-4.43
X5.91Y-4.53
X5.91Y-4.63
X5.91Y-4.73
X5.91Y-4.83
X5.91Y-4.93
X5.91Y-5.03
X5.91Y-5.13
X5.91Y-5.23
X5.91Y-5.33
X5.91Y-5.43
X6.01Y-3.83
X6.01Y-3.93
X6.01Y-4.03
X6.01Y-4.13
X6.01Y-4.23
X6.01Y-4.33
X6.01Y-4.43
X6.01Y-4.53
X6.01Y-4.63
X6.01Y-4.73
X6.01Y-4.83
X6.01Y-4.93
X6.01Y-5.03
X6.01Y-5.13
X6.01Y-5.23
X6.01Y-5.33
X6.01Y-5.43
X6.1Y-1.88
X6.1Y-1.98
X6.1Y-2.08
X6.1Y-2.18
X6.1Y-2.28
X6.1Y-2.38
X6.1Y-2.48
X6.1Y-2.58
X6.1Y-2.68
X6.1Y-2.78
X6.1Y-2.88
X6.1Y-2.98
X6.1Y-3.08
X6.1Y-3.18
X6.1Y-3.28
X6.1Y-3.38
X6.1Y-3.48
X6.1Y-3.58
X6.1Y-3.68
X6.11Y-4.03
X6.11Y-4.13
X6.11Y-4.23
X6.11Y-4.33
X6.11Y-4.43
X6.11Y-4.53
X6.11Y-4.63
X6.11Y-4.73
X6.11Y-4.83
X6.11Y-4.93
X6.11Y-5.03
X6.11Y-5.13
X6.11Y-5.23
X6.11Y-5.33
X6.11Y-5.43
X6.17Y-1.93
X6.17Y-2.03
X6.17Y-2.13
X6.17Y-2.23
X6.17Y-2.33
X6.17Y-2.43
X6.17Y-2.53
X6.17Y-2.63
X6.17Y-2.73
X6.17Y-2.83
X6.17Y-2.93
X6.17Y-3.03
X6.17Y-3.13
X6.17Y-3.23
X6.17Y-3.33
X6.17Y-3.43
X6.17Y-3.53
X6.17Y-3.63
X6.17Y-3.73
X6.21Y-4.03
X6.21Y-4.13
X6.21Y-4.23
X6.21Y-4.33
X6.21Y-4.43
X6.21Y-4.53
X6.21Y-4.63
X6.21Y-4.73
X6.21Y-4.83
X6.21Y-4.93
X6.21Y-5.03
X6.21Y-5.13
X6.21Y-5.23
X6.21Y-5.33
X6.21Y-5.43
X6.24Y-1.88
X6.24Y-1.98
X6.24Y-2.08
X6.24Y-2.18
X6.24Y-2.28
X6.24Y-2.38
X6.24Y-2.48
X6.24Y-2.58
X6.24Y-2.68
X6.24Y-2.78
X6.24Y-2.88
X6.24Y-2.98
X6.24Y-3.08
X6.24Y-3.18
X6.24Y-3.28
X6.24Y-3.38
X6.24Y-3.48
X6.24Y-3.58
X6.24Y-3.68
X6.31Y-1.93
X6.31Y-2.03
X6.31Y-2.13
X6.31Y-2.23
X6.31Y-2.33
X6.31Y-2.43
X6.31Y-2.53
X6.31Y-2.63
X6.31Y-2.73
X6.31Y-2.83
X6.31Y-2.93
X6.31Y-3.03
X6.31Y-3.13
X6.31Y-3.23
X6.31Y-3.33
X6.31Y-3.43
X6.31Y-3.53
X6.31Y-3.63
X6.31Y-3.73
X6.31Y-3.83
X6.31Y-3.93
X6.31Y-4.03
X6.31Y-4.13
X6.31Y-4.23
X6.31Y-4.33
X6.31Y-4.43
X6.31Y-4.53
X6.31Y-4.63
X6.31Y-4.73
X6.31Y-4.83
X6.31Y-4.93
X6.31Y-5.03
X6.31Y-5.13
X6.31Y-5.23
X6.31Y-5.33
X6.31Y-5.43
X6.41Y-1.93
X6.41Y-2.03
X6.41Y-2.13
X6.41Y-2.23
X6.41Y-2.33
X6.41Y-2.43
X6.41Y-2.53
X6.41Y-2.63
X6.41Y-2.73
X6.41Y-2.83
X6.41Y-2.93
X6.41Y-3.03
X6.41Y-3.13
X6.41Y-3.23
X6.41Y-3.33
X6.41Y-3.43
X6.41Y-3.53
X6.41Y-3.63
X6.41Y-3.73
X6.41Y-3.83
X6.41Y-3.93
X6.41Y-4.03
X6.41Y-4.13
X6.41Y-4.23
X6.41Y-4.33
X6.41Y-4.43
X6.41Y-4.53
X6.41Y-4.63
X6.41Y-4.73
X6.41Y-4.83
X6.41Y-4.93
X6.41Y-5.03
X6.41Y-5.13
X6.41Y-5.23
X6.41Y-5.33
X6.41Y-5.43
X6.56Y-1.98
X6.56Y-2.08
X6.56Y-2.18
X6.56Y-2.28
X6.56Y-2.38
X6.56Y-2.48
X6.56Y-2.58
X6.56Y-2.68
X6.56Y-2.78
X6.56Y-2.88
X6.56Y-2.98
X6.56Y-3.08
X6.56Y-3.18
X6.56Y-3.28
X6.56Y-3.38
X6.56Y-3.48
X6.56Y-3.58
X6.56Y-3.68
X6.56Y-3.78
X6.56Y-3.88
X6.56Y-3.98
X6.56Y-4.08
X6.56Y-4.18
X6.56Y-4.28
X6.56Y-4.38
X6.56Y-4.48
X6.56Y-4.58
X6.56Y-4.68
X6.56Y-4.78
X6.56Y-4.88
X6.56Y-4.98
X6.56Y-5.08
X6.56Y-5.18
X6.56Y-5.28
X6.56Y-5.38
X6.56Y-5.48
X6.66Y-1.98
X6.66Y-2.08
X6.66Y-2.18
X6.66Y-2.28
X6.66Y-2.38
X6.66Y-2.48
X6.66Y-2.58
X6.66Y-2.68
X6.66Y-2.78
X6.66Y-2.88
X6.66Y-2.98
X6.66Y-3.08
X6.66Y-3.18
X6.66Y-3.28
X6.66Y-3.38
X6.66Y-3.48
X6.66Y-3.58
X6.66Y-3.68
X6.66Y-3.78
X6.66Y-3.88
X6.66Y-3.98
X6.66Y-4.08
X6.66Y-4.18
X6.66Y-4.28
X6.66Y-4.38
X6.66Y-4.48
X6.66Y-4.58
X6.66Y-4.68
X6.66Y-4.78
X6.66Y-4.88
X6.66Y-4.98
X6.66Y-5.08
X6.66Y-5.18
X6.66Y-5.28
X6.66Y-5.38
X6.66Y-5.48
X7.36Y-1.98
X7.36Y-2.08
X7.36Y-2.18
X7.36Y-2.28
X7.36Y-2.38
X7.36Y-2.48
X7.36Y-2.58
X7.36Y-2.68
X7.36Y-2.78
X7.36Y-2.88
X7.36Y-2.98
X7.36Y-3.08
X7.36Y-3.18
X7.36Y-3.28
X7.36Y-3.38
X7.36Y-3.48
X7.36Y-3.58
X7.36Y-3.68
X7.36Y-3.78
X7.36Y-3.88
X7.36Y-3.98
X7.36Y-4.08
X7.36Y-4.18
X7.36Y-4.28
X7.36Y-4.38
X7.36Y-4.48
X7.36Y-4.58
X7.36Y-4.68
X7.36Y-4.78
X7.36Y-4.88
X7.36Y-4.98
X7.36Y-5.08
X7.36Y-5.18
X7.36Y-5.28
X7.36Y-5.38
X7.36Y-5.48
X7.46Y-1.98
X7.46Y-2.08
X7.46Y-2.18
X7.46Y-2.28
X7.46Y-2.38
X7.46Y-2.48
X7.46Y-2.58
X7.46Y-2.68
X7.46Y-2.78
X7.46Y-2.88
X7.46Y-2.98
X7.46Y-3.08
X7.46Y-3.18
X7.46Y-3.28
X7.46Y-3.38
X7.46Y-3.48
X7.46Y-3.58
X7.46Y-3.68
X7.46Y-3.78
X7.46Y-3.88
X7.46Y-3.98
X7.46Y-4.08
X7.46Y-4.18
X7.46Y-4.28
X7.46Y-4.38
X7.46Y-4.48
X7.46Y-4.58
X7.46Y-4.68
X7.46Y-4.78
X7.46Y-4.88
X7.46Y-4.98
X7.46Y-5.08
X7.46Y-5.18
X7.46Y-5.28
X7.46Y-5.38
X7.46Y-5.48
T2
X4.56Y-1.98
X4.56Y-2.08
X4.56Y-2.18
X4.56Y-2.28
X4.56Y-2.38
X4.56Y-2.48
X4.56Y-2.58
X4.56Y-2.68
X4.56Y-2.78
X4.56Y-2.88
X4.56Y-2.98
X4.56Y-3.08
X4.56Y-3.18
X4.56Y-3.28
X4.56Y-3.38
X4.56Y-3.48
X4.56Y-3.58
X4.56Y-3.68
X4.56Y-3.78
X4.56Y-3.88
X4.56Y-3.98
X4.56Y-4.08
X4.56Y-4.18
X4.56Y-4.28
X4.56Y-4.38
X4.56Y-4.48
X4.56Y-4.58
X4.56Y-4.68
X4.56Y-4.78
X4.56Y-4.88
X4.56Y-4.98
X4.56Y-5.08
X4.56Y-5.18
X4.56Y-5.28
X4.56Y-5.38
X4.56Y-5.48
X4.66Y-1.98
X4.66Y-2.08
X4.66Y-2.18
X4.66Y-2.28
X4.66Y-2.38
X4.66Y-2.48
X4.66Y-2.58
X4.66Y-2.68
X4.66Y-2.78
X4.66Y-2.88
X4.66Y-2.98
X4.66Y-3.08
X4.66Y-3.18
X4.66Y-3.28
X4.66Y-3.38
X4.66Y-3.48
X4.66Y-3.58
X4.66Y-3.68
X4.66Y-3.78
X4.66Y-3.88
X4.66Y-3.98
X4.66Y-4.08
X4.66Y-4.18
X4.66Y-4.28
X4.66Y-4.38
X4.66Y-4.48
X4.66Y-4.58
X4.66Y-4.68
X4.66Y-4.78
X4.66Y-4.88
X4.66Y-4.98
X4.66Y-5.08
X4.66Y-5.18
X4.66Y-5.28
X4.66Y-5.38
X4.66Y-5.48
X6.96Y-1.98
X6.96Y-2.08
X6.96Y-2.18
X6.96Y-2.28
X6.96Y-2.38
X6.96Y-2.48
X6.96Y-2.58
X6.96Y-2.68
X6.96Y-2.78
X6.96Y-2.88
X6.96Y-2.98
X6.96Y-3.08
X6.96Y-3.18
X6.96Y-3.28
X6.96Y-3.38
X6.96Y-3.48
X6.96Y-3.58
X6.96Y-3.68
X6.96Y-3.78
X6.96Y-3.88
X6.96Y-3.98
X6.96Y-4.08
X6.96Y-4.18
X6.96Y-4.28
X6.96Y-4.38
X6.96Y-4.48
X6.96Y-4.58
X6.96Y-4.68
X6.96Y-4.78
X6.96Y-4.88
X6.96Y-4.98
X6.96Y-5.08
X6.96Y-5.18
X6.96Y-5.28
X6.96Y-5.38
X6.96Y-5.48
X7.06Y-1.98
X7.06Y-2.08
X7.06Y-2.18
X7.06Y-2.28
X7.06Y-2.38
X7.06Y-2.48
X7.06Y-2.58
X7.06Y-2.68
X7.06Y-2.78
X7.06Y-2.88
X7.06Y-2.98
X7.06Y-3.08
X7.06Y-3.18
X7.06Y-3.28
X7.06Y-3.38
X7.06Y-3.48
X7.06Y-3.58
X7.06Y-3.68
X7.06Y-3.78
X7.06Y-3.88
X7.06Y-3.98
X7.06Y-4.08
X7.06Y-4.18
X7.06Y-4.28
X7.06Y-4.38
X7.06Y-4.48
X7.06Y-4.58
X7.06Y-4.68
X7.06Y-4.78
X7.06Y-4.88
X7.06Y-4.98
X7.06Y-5.08
X7.06Y-5.18
X7.06Y-5.28
X7.06Y-5.38
X7.06Y-5.48
T3
X4.86Y-1.83
X6.16Y-3.88
X6.76Y-1.88
T0
M30
