G04 #@! TF.FileFunction,Copper,L2,Bot,Signal*
%FSLAX46Y46*%
G04 Gerber Fmt 4.6, Leading zero omitted, Abs format (unit mm)*
G04 Created by KiCad (PCBNEW 4.0.0-2.201512062335+6193~38~ubuntu15.10.1-stable) date ti 19. tammikuuta 2016 16.11.54*
%MOMM*%
G01*
G04 APERTURE LIST*
%ADD10C,0.100000*%
%ADD11R,2.032000X2.032000*%
%ADD12O,2.032000X2.032000*%
%ADD13R,1.500000X1.500000*%
%ADD14C,1.500000*%
%ADD15C,3.100000*%
%ADD16R,1.727200X1.727200*%
%ADD17O,1.727200X1.727200*%
%ADD18C,1.700000*%
G04 APERTURE END LIST*
D10*
D11*
X176784000Y-139192000D03*
D12*
X179324000Y-139192000D03*
D11*
X115824000Y-139192000D03*
D12*
X118364000Y-139192000D03*
D13*
X162814000Y-89662000D03*
X162814000Y-94742000D03*
X162814000Y-92202000D03*
X162814000Y-82042000D03*
X162814000Y-87122000D03*
X162814000Y-84582000D03*
X162814000Y-74422000D03*
X162814000Y-79502000D03*
X162814000Y-76962000D03*
X162814000Y-66802000D03*
X162814000Y-71882000D03*
X162814000Y-69342000D03*
X162814000Y-59182000D03*
X162814000Y-64262000D03*
X162814000Y-61722000D03*
X162814000Y-51562000D03*
X162814000Y-56642000D03*
X162814000Y-54102000D03*
X162814000Y-49022000D03*
X132334000Y-49022000D03*
X132334000Y-51562000D03*
X132334000Y-56642000D03*
X132334000Y-54102000D03*
X132334000Y-59182000D03*
X132334000Y-64262000D03*
X132334000Y-61722000D03*
X132334000Y-66802000D03*
X132334000Y-71882000D03*
X132334000Y-69342000D03*
X132334000Y-74422000D03*
X132334000Y-79502000D03*
X132334000Y-76962000D03*
X132334000Y-82042000D03*
X132334000Y-87122000D03*
X132334000Y-84582000D03*
X132334000Y-89662000D03*
X132334000Y-94742000D03*
X132334000Y-92202000D03*
X160274000Y-97282000D03*
X160274000Y-99822000D03*
X162814000Y-135382000D03*
X162814000Y-137922000D03*
X162814000Y-127762000D03*
X162814000Y-132842000D03*
X162814000Y-130302000D03*
X162814000Y-120142000D03*
X162814000Y-125222000D03*
X162814000Y-122682000D03*
X162814000Y-112522000D03*
X162814000Y-117602000D03*
X162814000Y-115062000D03*
X162814000Y-104902000D03*
X162814000Y-109982000D03*
X162814000Y-107442000D03*
X162814000Y-97282000D03*
X162814000Y-102362000D03*
X162814000Y-99822000D03*
X132334000Y-135382000D03*
X134874000Y-135382000D03*
X137414000Y-135382000D03*
X137414000Y-137922000D03*
X137414000Y-140462000D03*
X134874000Y-140462000D03*
X132334000Y-140462000D03*
X132334000Y-137922000D03*
X134874000Y-137922000D03*
X132334000Y-127762000D03*
X134874000Y-127762000D03*
X137414000Y-127762000D03*
X137414000Y-130302000D03*
X137414000Y-132842000D03*
X134874000Y-132842000D03*
X132334000Y-132842000D03*
X132334000Y-130302000D03*
X134874000Y-130302000D03*
X132334000Y-120142000D03*
X134874000Y-120142000D03*
X137414000Y-120142000D03*
X137414000Y-122682000D03*
X137414000Y-125222000D03*
X134874000Y-125222000D03*
X132334000Y-125222000D03*
X132334000Y-122682000D03*
X134874000Y-122682000D03*
X132334000Y-112522000D03*
X134874000Y-112522000D03*
X137414000Y-112522000D03*
X137414000Y-115062000D03*
X137414000Y-117602000D03*
X134874000Y-117602000D03*
X132334000Y-117602000D03*
X132334000Y-115062000D03*
X134874000Y-115062000D03*
X139954000Y-135382000D03*
X142494000Y-135382000D03*
X145034000Y-135382000D03*
X145034000Y-137922000D03*
X145034000Y-140462000D03*
X142494000Y-140462000D03*
X139954000Y-140462000D03*
X139954000Y-137922000D03*
X142494000Y-137922000D03*
X139954000Y-127762000D03*
X142494000Y-127762000D03*
X145034000Y-127762000D03*
X145034000Y-130302000D03*
X145034000Y-132842000D03*
X142494000Y-132842000D03*
X139954000Y-132842000D03*
X139954000Y-130302000D03*
X142494000Y-130302000D03*
X139954000Y-120142000D03*
X142494000Y-120142000D03*
X145034000Y-120142000D03*
X145034000Y-122682000D03*
X145034000Y-125222000D03*
X142494000Y-125222000D03*
X139954000Y-125222000D03*
X139954000Y-122682000D03*
X142494000Y-122682000D03*
X139954000Y-112522000D03*
X142494000Y-112522000D03*
X145034000Y-112522000D03*
X145034000Y-115062000D03*
X145034000Y-117602000D03*
X142494000Y-117602000D03*
X139954000Y-117602000D03*
X139954000Y-115062000D03*
X142494000Y-115062000D03*
X147574000Y-135382000D03*
X150114000Y-135382000D03*
X152654000Y-135382000D03*
X152654000Y-137922000D03*
X147574000Y-140462000D03*
X147574000Y-137922000D03*
X150114000Y-137922000D03*
X147574000Y-127762000D03*
X150114000Y-127762000D03*
X152654000Y-127762000D03*
X152654000Y-130302000D03*
X152654000Y-132842000D03*
X150114000Y-132842000D03*
X147574000Y-132842000D03*
X147574000Y-130302000D03*
X150114000Y-130302000D03*
X147574000Y-120142000D03*
X150114000Y-120142000D03*
X152654000Y-120142000D03*
X152654000Y-122682000D03*
X152654000Y-125222000D03*
X150114000Y-125222000D03*
X147574000Y-125222000D03*
X147574000Y-122682000D03*
X150114000Y-122682000D03*
X147574000Y-112522000D03*
X150114000Y-112522000D03*
X152654000Y-112522000D03*
X152654000Y-115062000D03*
X152654000Y-117602000D03*
X150114000Y-117602000D03*
X147574000Y-117602000D03*
X147574000Y-115062000D03*
X150114000Y-115062000D03*
X155194000Y-132842000D03*
X157734000Y-132842000D03*
X160274000Y-132842000D03*
X160274000Y-135382000D03*
X160274000Y-137922000D03*
X157734000Y-137922000D03*
X155194000Y-137922000D03*
X155194000Y-135382000D03*
X157734000Y-135382000D03*
X155194000Y-125222000D03*
X157734000Y-125222000D03*
X160274000Y-125222000D03*
X160274000Y-127762000D03*
X160274000Y-130302000D03*
X157734000Y-130302000D03*
X155194000Y-130302000D03*
X155194000Y-127762000D03*
X157734000Y-127762000D03*
X155194000Y-117602000D03*
X157734000Y-117602000D03*
X160274000Y-117602000D03*
X160274000Y-120142000D03*
X160274000Y-122682000D03*
X157734000Y-122682000D03*
X155194000Y-122682000D03*
X155194000Y-120142000D03*
X157734000Y-120142000D03*
X155194000Y-109982000D03*
X157734000Y-109982000D03*
X160274000Y-109982000D03*
X160274000Y-112522000D03*
X160274000Y-115062000D03*
X157734000Y-115062000D03*
X155194000Y-115062000D03*
X155194000Y-112522000D03*
X157734000Y-112522000D03*
X155194000Y-102362000D03*
X157734000Y-102362000D03*
X160274000Y-102362000D03*
X160274000Y-104902000D03*
X160274000Y-107442000D03*
X157734000Y-107442000D03*
X155194000Y-107442000D03*
X155194000Y-104902000D03*
X157734000Y-104902000D03*
X147574000Y-104902000D03*
X150114000Y-104902000D03*
X152654000Y-104902000D03*
X152654000Y-107442000D03*
X152654000Y-109982000D03*
X150114000Y-109982000D03*
X147574000Y-109982000D03*
X147574000Y-107442000D03*
X150114000Y-107442000D03*
X139954000Y-104902000D03*
X142494000Y-104902000D03*
X145034000Y-104902000D03*
X145034000Y-107442000D03*
X145034000Y-109982000D03*
X142494000Y-109982000D03*
X139954000Y-109982000D03*
X139954000Y-107442000D03*
X142494000Y-107442000D03*
X132334000Y-104902000D03*
X134874000Y-104902000D03*
X137414000Y-104902000D03*
X137414000Y-107442000D03*
X137414000Y-109982000D03*
X134874000Y-109982000D03*
X132334000Y-109982000D03*
X132334000Y-107442000D03*
X134874000Y-107442000D03*
X132334000Y-97282000D03*
X134874000Y-97282000D03*
X137414000Y-97282000D03*
X137414000Y-99822000D03*
X137414000Y-102362000D03*
X134874000Y-102362000D03*
X132334000Y-102362000D03*
X132334000Y-99822000D03*
X134874000Y-99822000D03*
X139954000Y-97282000D03*
X142494000Y-97282000D03*
X145034000Y-97282000D03*
X145034000Y-99822000D03*
X145034000Y-102362000D03*
X142494000Y-102362000D03*
X139954000Y-102362000D03*
X139954000Y-99822000D03*
X142494000Y-99822000D03*
D14*
X140208000Y-93472000D03*
X136652000Y-93472000D03*
X138430000Y-94742000D03*
X134874000Y-94742000D03*
X156718000Y-94742000D03*
X160274000Y-94742000D03*
X154940000Y-93472000D03*
X158496000Y-93472000D03*
X140208000Y-90932000D03*
X136652000Y-90932000D03*
X138430000Y-92202000D03*
X134874000Y-92202000D03*
X156718000Y-92202000D03*
X160274000Y-92202000D03*
X154940000Y-90932000D03*
X158496000Y-90932000D03*
X140208000Y-88392000D03*
X136652000Y-88392000D03*
X138430000Y-89662000D03*
X134874000Y-89662000D03*
X156718000Y-89662000D03*
X160274000Y-89662000D03*
X154940000Y-88392000D03*
X158496000Y-88392000D03*
X140208000Y-85852000D03*
X136652000Y-85852000D03*
X138430000Y-87122000D03*
X134874000Y-87122000D03*
X156718000Y-87122000D03*
X160274000Y-87122000D03*
X154940000Y-85852000D03*
X158496000Y-85852000D03*
X140208000Y-83312000D03*
X136652000Y-83312000D03*
X138430000Y-84582000D03*
X134874000Y-84582000D03*
X156718000Y-84582000D03*
X160274000Y-84582000D03*
X154940000Y-83312000D03*
X158496000Y-83312000D03*
X140208000Y-80772000D03*
X136652000Y-80772000D03*
X138430000Y-82042000D03*
X134874000Y-82042000D03*
X156718000Y-82042000D03*
X160274000Y-82042000D03*
X154940000Y-80772000D03*
X158496000Y-80772000D03*
X140208000Y-78232000D03*
X136652000Y-78232000D03*
X138430000Y-79502000D03*
X134874000Y-79502000D03*
X156718000Y-79502000D03*
X160274000Y-79502000D03*
X154940000Y-78232000D03*
X158496000Y-78232000D03*
X140208000Y-75692000D03*
X136652000Y-75692000D03*
X138430000Y-76962000D03*
X134874000Y-76962000D03*
X156718000Y-76962000D03*
X160274000Y-76962000D03*
X154940000Y-75692000D03*
X158496000Y-75692000D03*
X140208000Y-73152000D03*
X136652000Y-73152000D03*
X138430000Y-74422000D03*
X134874000Y-74422000D03*
X156718000Y-74422000D03*
X160274000Y-74422000D03*
X154940000Y-73152000D03*
X158496000Y-73152000D03*
X140208000Y-70612000D03*
X136652000Y-70612000D03*
X138430000Y-71882000D03*
X134874000Y-71882000D03*
X156718000Y-71882000D03*
X160274000Y-71882000D03*
X154940000Y-70612000D03*
X158496000Y-70612000D03*
X140208000Y-68072000D03*
X136652000Y-68072000D03*
X138430000Y-69342000D03*
X134874000Y-69342000D03*
X156718000Y-69342000D03*
X160274000Y-69342000D03*
X154940000Y-68072000D03*
X158496000Y-68072000D03*
X140208000Y-65532000D03*
X136652000Y-65532000D03*
X138430000Y-66802000D03*
X134874000Y-66802000D03*
X156718000Y-66802000D03*
X160274000Y-66802000D03*
X154940000Y-65532000D03*
X158496000Y-65532000D03*
X140208000Y-62992000D03*
X136652000Y-62992000D03*
X138430000Y-64262000D03*
X134874000Y-64262000D03*
X156718000Y-64262000D03*
X160274000Y-64262000D03*
X154940000Y-62992000D03*
X158496000Y-62992000D03*
X140208000Y-60452000D03*
X136652000Y-60452000D03*
X138430000Y-61722000D03*
X134874000Y-61722000D03*
X156718000Y-61722000D03*
X160274000Y-61722000D03*
X154940000Y-60452000D03*
X158496000Y-60452000D03*
X140208000Y-57912000D03*
X136652000Y-57912000D03*
X138430000Y-59182000D03*
X134874000Y-59182000D03*
X156718000Y-59182000D03*
X160274000Y-59182000D03*
X154940000Y-57912000D03*
X158496000Y-57912000D03*
X140208000Y-55372000D03*
X136652000Y-55372000D03*
X138430000Y-56642000D03*
X134874000Y-56642000D03*
X156718000Y-56642000D03*
X160274000Y-56642000D03*
X154940000Y-55372000D03*
X158496000Y-55372000D03*
X140208000Y-52832000D03*
X136652000Y-52832000D03*
X138430000Y-54102000D03*
X134874000Y-54102000D03*
X156718000Y-54102000D03*
X160274000Y-54102000D03*
X154940000Y-52832000D03*
X158496000Y-52832000D03*
X140208000Y-50292000D03*
X136652000Y-50292000D03*
X138430000Y-51562000D03*
X134874000Y-51562000D03*
X156718000Y-51562000D03*
X160274000Y-51562000D03*
X154940000Y-50292000D03*
X158496000Y-50292000D03*
D15*
X156464000Y-98552000D03*
X123444000Y-46482000D03*
D16*
X115824000Y-50292000D03*
D17*
X118364000Y-50292000D03*
X115824000Y-52832000D03*
X118364000Y-52832000D03*
X115824000Y-55372000D03*
X118364000Y-55372000D03*
X115824000Y-57912000D03*
X118364000Y-57912000D03*
X115824000Y-60452000D03*
X118364000Y-60452000D03*
X115824000Y-62992000D03*
X118364000Y-62992000D03*
X115824000Y-65532000D03*
X118364000Y-65532000D03*
X115824000Y-68072000D03*
X118364000Y-68072000D03*
X115824000Y-70612000D03*
X118364000Y-70612000D03*
X115824000Y-73152000D03*
X118364000Y-73152000D03*
X115824000Y-75692000D03*
X118364000Y-75692000D03*
X115824000Y-78232000D03*
X118364000Y-78232000D03*
X115824000Y-80772000D03*
X118364000Y-80772000D03*
X115824000Y-83312000D03*
X118364000Y-83312000D03*
X115824000Y-85852000D03*
X118364000Y-85852000D03*
X115824000Y-88392000D03*
X118364000Y-88392000D03*
X115824000Y-90932000D03*
X118364000Y-90932000D03*
X115824000Y-93472000D03*
X118364000Y-93472000D03*
X115824000Y-96012000D03*
X118364000Y-96012000D03*
X115824000Y-98552000D03*
X118364000Y-98552000D03*
X115824000Y-101092000D03*
X118364000Y-101092000D03*
X115824000Y-103632000D03*
X118364000Y-103632000D03*
X115824000Y-106172000D03*
X118364000Y-106172000D03*
X115824000Y-108712000D03*
X118364000Y-108712000D03*
X115824000Y-111252000D03*
X118364000Y-111252000D03*
X115824000Y-113792000D03*
X118364000Y-113792000D03*
X115824000Y-116332000D03*
X118364000Y-116332000D03*
X115824000Y-118872000D03*
X118364000Y-118872000D03*
X115824000Y-121412000D03*
X118364000Y-121412000D03*
X115824000Y-123952000D03*
X118364000Y-123952000D03*
X115824000Y-126492000D03*
X118364000Y-126492000D03*
X115824000Y-129032000D03*
X118364000Y-129032000D03*
X115824000Y-131572000D03*
X118364000Y-131572000D03*
X115824000Y-134112000D03*
X118364000Y-134112000D03*
X115824000Y-136652000D03*
X118364000Y-136652000D03*
D16*
X176784000Y-50292000D03*
D17*
X179324000Y-50292000D03*
X176784000Y-52832000D03*
X179324000Y-52832000D03*
X176784000Y-55372000D03*
X179324000Y-55372000D03*
X176784000Y-57912000D03*
X179324000Y-57912000D03*
X176784000Y-60452000D03*
X179324000Y-60452000D03*
X176784000Y-62992000D03*
X179324000Y-62992000D03*
X176784000Y-65532000D03*
X179324000Y-65532000D03*
X176784000Y-68072000D03*
X179324000Y-68072000D03*
X176784000Y-70612000D03*
X179324000Y-70612000D03*
X176784000Y-73152000D03*
X179324000Y-73152000D03*
X176784000Y-75692000D03*
X179324000Y-75692000D03*
X176784000Y-78232000D03*
X179324000Y-78232000D03*
X176784000Y-80772000D03*
X179324000Y-80772000D03*
X176784000Y-83312000D03*
X179324000Y-83312000D03*
X176784000Y-85852000D03*
X179324000Y-85852000D03*
X176784000Y-88392000D03*
X179324000Y-88392000D03*
X176784000Y-90932000D03*
X179324000Y-90932000D03*
X176784000Y-93472000D03*
X179324000Y-93472000D03*
X176784000Y-96012000D03*
X179324000Y-96012000D03*
X176784000Y-98552000D03*
X179324000Y-98552000D03*
X176784000Y-101092000D03*
X179324000Y-101092000D03*
X176784000Y-103632000D03*
X179324000Y-103632000D03*
X176784000Y-106172000D03*
X179324000Y-106172000D03*
X176784000Y-108712000D03*
X179324000Y-108712000D03*
X176784000Y-111252000D03*
X179324000Y-111252000D03*
X176784000Y-113792000D03*
X179324000Y-113792000D03*
X176784000Y-116332000D03*
X179324000Y-116332000D03*
X176784000Y-118872000D03*
X179324000Y-118872000D03*
X176784000Y-121412000D03*
X179324000Y-121412000D03*
X176784000Y-123952000D03*
X179324000Y-123952000D03*
X176784000Y-126492000D03*
X179324000Y-126492000D03*
X176784000Y-129032000D03*
X179324000Y-129032000D03*
X176784000Y-131572000D03*
X179324000Y-131572000D03*
X176784000Y-134112000D03*
X179324000Y-134112000D03*
X176784000Y-136652000D03*
X179324000Y-136652000D03*
D18*
X105664000Y-50292000D03*
X108204000Y-50292000D03*
X105664000Y-52832000D03*
X108204000Y-52832000D03*
X105664000Y-55372000D03*
X108204000Y-55372000D03*
X105664000Y-57912000D03*
X108204000Y-57912000D03*
X105664000Y-60452000D03*
X108204000Y-60452000D03*
X105664000Y-62992000D03*
X108204000Y-62992000D03*
X105664000Y-65532000D03*
X108204000Y-65532000D03*
X105664000Y-68072000D03*
X108204000Y-68072000D03*
X105664000Y-70612000D03*
X108204000Y-70612000D03*
X105664000Y-73152000D03*
X108204000Y-73152000D03*
X105664000Y-75692000D03*
X108204000Y-75692000D03*
X105664000Y-78232000D03*
X108204000Y-78232000D03*
X105664000Y-80772000D03*
X108204000Y-80772000D03*
X105664000Y-83312000D03*
X108204000Y-83312000D03*
X105664000Y-85852000D03*
X108204000Y-85852000D03*
X105664000Y-88392000D03*
X108204000Y-88392000D03*
X105664000Y-90932000D03*
X108204000Y-90932000D03*
X105664000Y-93472000D03*
X108204000Y-93472000D03*
X105664000Y-96012000D03*
X108204000Y-96012000D03*
X105664000Y-98552000D03*
X108204000Y-98552000D03*
X105664000Y-101092000D03*
X108204000Y-101092000D03*
X105664000Y-103632000D03*
X108204000Y-103632000D03*
X105664000Y-106172000D03*
X108204000Y-106172000D03*
X105664000Y-108712000D03*
X108204000Y-108712000D03*
X105664000Y-111252000D03*
X108204000Y-111252000D03*
X105664000Y-113792000D03*
X108204000Y-113792000D03*
X105664000Y-116332000D03*
X108204000Y-116332000D03*
X105664000Y-118872000D03*
X108204000Y-118872000D03*
X105664000Y-121412000D03*
X108204000Y-121412000D03*
X105664000Y-123952000D03*
X108204000Y-123952000D03*
X105664000Y-126492000D03*
X108204000Y-126492000D03*
X105664000Y-129032000D03*
X108204000Y-129032000D03*
X105664000Y-131572000D03*
X108204000Y-131572000D03*
X105664000Y-134112000D03*
X108204000Y-134112000D03*
X105664000Y-136652000D03*
X108204000Y-136652000D03*
X128524000Y-50292000D03*
X125984000Y-50292000D03*
X128524000Y-52832000D03*
X125984000Y-52832000D03*
X128524000Y-55372000D03*
X125984000Y-55372000D03*
X128524000Y-57912000D03*
X125984000Y-57912000D03*
X128524000Y-60452000D03*
X125984000Y-60452000D03*
X128524000Y-62992000D03*
X125984000Y-62992000D03*
X128524000Y-65532000D03*
X125984000Y-65532000D03*
X128524000Y-68072000D03*
X125984000Y-68072000D03*
X128524000Y-70612000D03*
X125984000Y-70612000D03*
X128524000Y-73152000D03*
X125984000Y-73152000D03*
X128524000Y-75692000D03*
X125984000Y-75692000D03*
X128524000Y-78232000D03*
X125984000Y-78232000D03*
X128524000Y-80772000D03*
X125984000Y-80772000D03*
X128524000Y-83312000D03*
X125984000Y-83312000D03*
X128524000Y-85852000D03*
X125984000Y-85852000D03*
X128524000Y-88392000D03*
X125984000Y-88392000D03*
X128524000Y-90932000D03*
X125984000Y-90932000D03*
X128524000Y-93472000D03*
X125984000Y-93472000D03*
X128524000Y-96012000D03*
X125984000Y-96012000D03*
X128524000Y-98552000D03*
X125984000Y-98552000D03*
X128524000Y-101092000D03*
X125984000Y-101092000D03*
X128524000Y-103632000D03*
X125984000Y-103632000D03*
X128524000Y-106172000D03*
X125984000Y-106172000D03*
X128524000Y-108712000D03*
X125984000Y-108712000D03*
X128524000Y-111252000D03*
X125984000Y-111252000D03*
X128524000Y-113792000D03*
X125984000Y-113792000D03*
X128524000Y-116332000D03*
X125984000Y-116332000D03*
X128524000Y-118872000D03*
X125984000Y-118872000D03*
X128524000Y-121412000D03*
X125984000Y-121412000D03*
X128524000Y-123952000D03*
X125984000Y-123952000D03*
X128524000Y-126492000D03*
X125984000Y-126492000D03*
X128524000Y-129032000D03*
X125984000Y-129032000D03*
X128524000Y-131572000D03*
X125984000Y-131572000D03*
X128524000Y-134112000D03*
X125984000Y-134112000D03*
X128524000Y-136652000D03*
X125984000Y-136652000D03*
X166624000Y-50292000D03*
X169164000Y-50292000D03*
X166624000Y-52832000D03*
X169164000Y-52832000D03*
X166624000Y-55372000D03*
X169164000Y-55372000D03*
X166624000Y-57912000D03*
X169164000Y-57912000D03*
X166624000Y-60452000D03*
X169164000Y-60452000D03*
X166624000Y-62992000D03*
X169164000Y-62992000D03*
X166624000Y-65532000D03*
X169164000Y-65532000D03*
X166624000Y-68072000D03*
X169164000Y-68072000D03*
X166624000Y-70612000D03*
X169164000Y-70612000D03*
X166624000Y-73152000D03*
X169164000Y-73152000D03*
X166624000Y-75692000D03*
X169164000Y-75692000D03*
X166624000Y-78232000D03*
X169164000Y-78232000D03*
X166624000Y-80772000D03*
X169164000Y-80772000D03*
X166624000Y-83312000D03*
X169164000Y-83312000D03*
X166624000Y-85852000D03*
X169164000Y-85852000D03*
X166624000Y-88392000D03*
X169164000Y-88392000D03*
X166624000Y-90932000D03*
X169164000Y-90932000D03*
X166624000Y-93472000D03*
X169164000Y-93472000D03*
X166624000Y-96012000D03*
X169164000Y-96012000D03*
X166624000Y-98552000D03*
X169164000Y-98552000D03*
X166624000Y-101092000D03*
X169164000Y-101092000D03*
X166624000Y-103632000D03*
X169164000Y-103632000D03*
X166624000Y-106172000D03*
X169164000Y-106172000D03*
X166624000Y-108712000D03*
X169164000Y-108712000D03*
X166624000Y-111252000D03*
X169164000Y-111252000D03*
X166624000Y-113792000D03*
X169164000Y-113792000D03*
X166624000Y-116332000D03*
X169164000Y-116332000D03*
X166624000Y-118872000D03*
X169164000Y-118872000D03*
X166624000Y-121412000D03*
X169164000Y-121412000D03*
X166624000Y-123952000D03*
X169164000Y-123952000D03*
X166624000Y-126492000D03*
X169164000Y-126492000D03*
X166624000Y-129032000D03*
X169164000Y-129032000D03*
X166624000Y-131572000D03*
X169164000Y-131572000D03*
X166624000Y-134112000D03*
X169164000Y-134112000D03*
X166624000Y-136652000D03*
X169164000Y-136652000D03*
X189484000Y-50292000D03*
X186944000Y-50292000D03*
X189484000Y-52832000D03*
X186944000Y-52832000D03*
X189484000Y-55372000D03*
X186944000Y-55372000D03*
X189484000Y-57912000D03*
X186944000Y-57912000D03*
X189484000Y-60452000D03*
X186944000Y-60452000D03*
X189484000Y-62992000D03*
X186944000Y-62992000D03*
X189484000Y-65532000D03*
X186944000Y-65532000D03*
X189484000Y-68072000D03*
X186944000Y-68072000D03*
X189484000Y-70612000D03*
X186944000Y-70612000D03*
X189484000Y-73152000D03*
X186944000Y-73152000D03*
X189484000Y-75692000D03*
X186944000Y-75692000D03*
X189484000Y-78232000D03*
X186944000Y-78232000D03*
X189484000Y-80772000D03*
X186944000Y-80772000D03*
X189484000Y-83312000D03*
X186944000Y-83312000D03*
X189484000Y-85852000D03*
X186944000Y-85852000D03*
X189484000Y-88392000D03*
X186944000Y-88392000D03*
X189484000Y-90932000D03*
X186944000Y-90932000D03*
X189484000Y-93472000D03*
X186944000Y-93472000D03*
X189484000Y-96012000D03*
X186944000Y-96012000D03*
X189484000Y-98552000D03*
X186944000Y-98552000D03*
X189484000Y-101092000D03*
X186944000Y-101092000D03*
X189484000Y-103632000D03*
X186944000Y-103632000D03*
X189484000Y-106172000D03*
X186944000Y-106172000D03*
X189484000Y-108712000D03*
X186944000Y-108712000D03*
X189484000Y-111252000D03*
X186944000Y-111252000D03*
X189484000Y-113792000D03*
X186944000Y-113792000D03*
X189484000Y-116332000D03*
X186944000Y-116332000D03*
X189484000Y-118872000D03*
X186944000Y-118872000D03*
X189484000Y-121412000D03*
X186944000Y-121412000D03*
X189484000Y-123952000D03*
X186944000Y-123952000D03*
X189484000Y-126492000D03*
X186944000Y-126492000D03*
X189484000Y-129032000D03*
X186944000Y-129032000D03*
X189484000Y-131572000D03*
X186944000Y-131572000D03*
X189484000Y-134112000D03*
X186944000Y-134112000D03*
X189484000Y-136652000D03*
X186944000Y-136652000D03*
X105664000Y-139192000D03*
X108204000Y-139192000D03*
X128524000Y-139192000D03*
X125984000Y-139192000D03*
X166624000Y-139192000D03*
X169164000Y-139192000D03*
X189484000Y-139192000D03*
X186944000Y-139192000D03*
D15*
X171704000Y-47752000D03*
D14*
X140208000Y-47752000D03*
X136652000Y-47752000D03*
X138430000Y-49022000D03*
X134874000Y-49022000D03*
X156718000Y-49022000D03*
X160274000Y-49022000D03*
X154940000Y-47752000D03*
X158496000Y-47752000D03*
D13*
X147574000Y-97282000D03*
X150114000Y-97282000D03*
X152654000Y-97282000D03*
X152654000Y-99822000D03*
X152654000Y-102362000D03*
X150114000Y-102362000D03*
X147574000Y-102362000D03*
X147574000Y-99822000D03*
X150114000Y-99822000D03*
M02*
